<svg width="80.0" height="80.0" viewBox="0 0 80.0 80.0" xmlns="http://www.w3.org/2000/svg">
  <path d="M69.285,39.983C64.86,55.966 57.069,70.074 40.277,70.074C23.486,70.074 3.502,52.749 12.052,38.491C23.094,20.083 23.486,10.074 40.277,10.074C57.069,10.074 73.702,24.016 69.285,39.983Z" fill="#fff3da" fill-rule="evenodd" clip-rule="evenodd" />
  <path d="M63.414,29.309L60.214,26.775C58.764,25.625 57.03,24.909 55.197,24.684L32.489,21.942C28.847,21.5 25.447,23.834 24.547,27.392L18.539,51.109C18.305,52.042 18.464,53.034 18.98,53.842L21.105,57.159L63.422,29.317L63.414,29.309Z" fill="#379017" />
  <path d="M22.023,53.426L25.056,26.892C25.114,26.384 25.223,25.901 25.364,25.426C25.006,26.026 24.723,26.684 24.539,27.392L18.531,51.109C18.298,52.042 18.456,53.034 18.973,53.842L21.098,57.159L22.731,56.084C22.173,55.317 21.906,54.376 22.014,53.434L22.023,53.426Z" fill="#7cc462" />
  <path d="M21.099,57.775C21.058,57.775 21.016,57.775 20.966,57.758C20.799,57.724 20.657,57.625 20.566,57.483L18.441,54.166C17.833,53.216 17.641,52.041 17.916,50.941L23.858,27.508C24.874,23.5 28.741,20.85 32.841,21.35L55.257,24.058C57.208,24.291 59.049,25.058 60.591,26.283L63.791,28.816C63.949,28.941 64.033,29.133 64.024,29.333C64.024,29.533 63.908,29.716 63.741,29.824L21.424,57.674C21.324,57.741 21.199,57.775 21.083,57.775H21.099ZM31.858,22.541C28.699,22.541 25.866,24.691 25.074,27.816L19.141,51.25C18.949,52.016 19.083,52.833 19.507,53.491L21.291,56.275L62.357,29.25L59.833,27.25C58.474,26.174 56.841,25.5 55.124,25.291L32.708,22.583C32.424,22.549 32.149,22.533 31.866,22.533L31.858,22.541Z" fill="#575756" />
  <path d="M22.43,58.44C21.997,58.44 21.563,58.315 21.171,58.065C20.33,57.523 19.947,56.54 20.197,55.573L26.921,29.031C27.697,25.956 30.663,23.931 33.805,24.306L60.713,27.556C62.513,27.773 64.138,28.756 65.163,30.256C66.188,31.756 66.521,33.623 66.08,35.381L61.855,52.073C61.08,55.148 58.113,57.173 54.972,56.798L29.688,53.74C29.413,53.706 29.13,53.79 28.913,53.956L23.863,57.94C23.438,58.273 22.947,58.44 22.438,58.44H22.43ZM33.047,25.515C30.755,25.515 28.705,27.073 28.13,29.34L21.405,55.881C21.271,56.415 21.546,56.823 21.855,57.023C22.163,57.223 22.638,57.306 23.08,56.965L28.13,52.981C28.605,52.606 29.222,52.431 29.83,52.506L55.113,55.565C57.63,55.865 60.013,54.24 60.638,51.773L64.863,35.081C65.221,33.673 64.955,32.173 64.13,30.973C63.305,29.773 62.005,28.981 60.555,28.806L33.646,25.556C33.446,25.531 33.238,25.523 33.038,25.523L33.047,25.515Z" fill="#575756" />
  <path d="M55.042,56.174L29.759,53.116C29.317,53.065 28.867,53.19 28.517,53.465L23.467,57.449C22.209,58.44 20.417,57.274 20.809,55.724L27.534,29.182C28.234,26.407 30.892,24.582 33.734,24.924L60.642,28.174C64.05,28.582 66.325,31.899 65.475,35.224L61.25,51.916C60.55,54.69 57.892,56.515 55.05,56.174H55.042Z" fill="#c5e5b9" />
  <path d="M36.568,25.274L33.735,24.932C30.893,24.59 28.235,26.407 27.535,29.19L22.793,47.898L34.593,27.299C35.085,26.44 35.776,25.757 36.568,25.274Z" fill="#e1eedd" />
  <path d="M60.641,28.182L52.791,27.232L54.366,42.607C54.691,45.807 52.591,48.749 49.458,49.482L32.508,53.449L55.041,56.174C57.883,56.516 60.541,54.699 61.241,51.916L65.466,35.224C66.308,31.899 64.041,28.582 60.633,28.174L60.641,28.182Z" fill="#9cd586" />
  <path d="M60.64,28.182L59.006,27.982L58.64,47.007C58.581,50.224 56.14,52.891 52.94,53.241L41.281,54.516L55.048,56.182C57.89,56.524 60.548,54.707 61.248,51.924L65.473,35.232C66.315,31.907 64.048,28.591 60.64,28.182Z" fill="#7cc462" />
  <path d="M22.43,58.44C21.997,58.44 21.563,58.315 21.171,58.065C20.33,57.523 19.947,56.54 20.197,55.573L26.921,29.031C27.697,25.956 30.663,23.931 33.805,24.306L60.713,27.556C62.513,27.773 64.138,28.756 65.163,30.256C66.188,31.756 66.521,33.623 66.08,35.381L61.855,52.073C61.08,55.148 58.113,57.173 54.972,56.798L29.688,53.74C29.413,53.706 29.13,53.79 28.913,53.956L23.863,57.94C23.438,58.273 22.947,58.44 22.438,58.44H22.43ZM33.047,25.515C30.755,25.515 28.705,27.073 28.13,29.34L21.405,55.881C21.271,56.415 21.546,56.823 21.855,57.023C22.163,57.223 22.638,57.306 23.08,56.965L28.13,52.981C28.605,52.606 29.222,52.431 29.83,52.506L55.113,55.565C57.63,55.865 60.013,54.24 60.638,51.773L64.863,35.081C65.221,33.673 64.955,32.173 64.13,30.973C63.305,29.773 62.005,28.981 60.555,28.806L33.646,25.556C33.446,25.531 33.238,25.523 33.038,25.523L33.047,25.515Z" fill="#575756" />
  <path d="M34.321,41.376C35.549,40.589 35.986,39.078 35.296,38.001C34.606,36.923 33.051,36.687 31.822,37.474C30.594,38.261 30.157,39.772 30.847,40.849C31.537,41.927 33.092,42.163 34.321,41.376Z" fill="#575756" />
  <path d="M42.239,42.333C43.467,41.546 43.904,40.035 43.214,38.958C42.524,37.88 40.969,37.644 39.74,38.431C38.512,39.218 38.075,40.729 38.765,41.806C39.455,42.884 41.01,43.12 42.239,42.333Z" fill="#575756" />
  <path d="M58.079,44.228C59.307,43.441 59.744,41.93 59.054,40.852C58.364,39.775 56.809,39.539 55.58,40.326C54.352,41.112 53.915,42.624 54.605,43.701C55.294,44.778 56.85,45.014 58.079,44.228Z" fill="#575756" />
  <path d="M50.157,43.278C51.385,42.492 51.822,40.98 51.132,39.903C50.442,38.825 48.887,38.59 47.658,39.376C46.43,40.163 45.993,41.674 46.683,42.752C47.373,43.829 48.928,44.065 50.157,43.278Z" fill="#575756" />
  <path d="M48.492,51.318L48.467,51.293C47.967,50.751 47.333,50.351 46.625,50.134L46.883,49.859C47.258,49.459 47.55,48.984 47.733,48.468L47.808,48.268L47.958,48.418C48.392,48.851 48.917,49.184 49.492,49.384L49.675,49.451C49.167,49.918 48.783,50.501 48.558,51.151L48.5,51.318H48.492Z" fill="#ffffff" />
  <path d="M32.945,31.141C33.567,31.141 34.07,30.637 34.07,30.016C34.07,29.394 33.567,28.891 32.945,28.891C32.324,28.891 31.82,29.394 31.82,30.016C31.82,30.637 32.324,31.141 32.945,31.141Z" fill="#ffffff" />
</svg>