<svg width="256.0" height="256.0" viewBox="0 0 256.0 256.0" xmlns="http://www.w3.org/2000/svg">
  <path d="M170.08,67.6C169.66,67.51 169.26,67.52 168.88,67.61L156.91,70.44C156.91,70.44 170.67,74.98 172.19,77.42C173.41,76.85 174.21,75.35 174.12,73.38C174,70.61 172.19,68.03 170.08,67.6Z" fill="#75c3f0" />
  <path d="M172.19,79.43C171.52,79.43 170.87,79.09 170.49,78.49C169.55,77.32 162.37,74.36 156.28,72.35C155.46,72.08 154.91,71.31 154.91,70.45C154.91,70.42 154.91,70.39 154.91,70.36C154.95,69.47 155.58,68.71 156.45,68.5L168.42,65.67C169.08,65.51 169.77,65.5 170.47,65.64C173.47,66.25 175.95,69.61 176.11,73.29C176.11,73.42 176.11,73.55 176.11,73.68C176.11,76.24 174.95,78.34 173.02,79.24C172.75,79.37 172.46,79.43 172.18,79.43H172.19ZM163.96,70.84C167.01,72.02 170.04,73.37 172,74.66C172.08,74.39 172.13,74.06 172.13,73.68C172.13,73.61 172.13,73.54 172.13,73.47C172.04,71.5 170.77,69.78 169.69,69.56C169.57,69.53 169.46,69.53 169.36,69.56L163.97,70.83L163.96,70.84Z" fill="#565657" />
  <path d="M168.35,69.75C167.25,69.75 166.35,68.85 166.35,67.75V66.88C166.35,64.64 166.98,62.45 168.17,60.55L174.23,50.87C174.82,49.93 176.05,49.65 176.99,50.24C177.93,50.83 178.21,52.06 177.62,53L171.56,62.68C170.77,63.94 170.35,65.4 170.35,66.89V67.76C170.35,68.86 169.45,69.76 168.35,69.76V69.75Z" fill="#565657" />
  <path d="M185.17,66.03C185.11,64.61 184.18,63.28 183.09,63.06C182.82,63 182.56,63.03 182.33,63.11L170.49,67.75C172.1,68.3 173.46,70.06 173.94,72.14L184.08,68.17L184.15,68.14C184.8,67.85 185.22,67.07 185.17,66.04V66.03Z" fill="#565657" />
  <path d="M180.52,53.43C181.7,49.82 180.61,46.21 178.07,45.38C175.54,44.55 172.52,46.81 171.34,50.43C170.15,54.04 171.24,57.65 173.78,58.48C176.32,59.31 179.33,57.05 180.52,53.43Z" fill="#565657" />
  <path d="M174.85,60.65C173.54,60.65 172.31,60.2 171.29,59.32C169.63,57.9 168.75,55.54 168.87,52.86C169.08,48.26 172.13,44.07 175.83,43.33C177.57,42.98 179.25,43.41 180.56,44.54C182.22,45.96 183.1,48.32 182.98,51C182.77,55.6 179.72,59.79 176.02,60.53C175.63,60.61 175.23,60.65 174.85,60.65ZM172.86,53.04C172.8,54.47 173.18,55.68 173.89,56.29C174.27,56.61 174.71,56.72 175.23,56.61C176.9,56.27 178.85,53.81 178.99,50.82C179.05,49.39 178.67,48.18 177.96,47.57C177.58,47.25 177.14,47.14 176.62,47.25C174.95,47.59 173,50.05 172.86,53.04Z" fill="#565657" />
  <path d="M88.45,189.71C97.95,186.6 102.05,173.08 97.61,159.53C93.16,145.97 81.86,137.51 72.36,140.62C62.86,143.73 58.76,157.25 63.21,170.8C67.65,184.36 78.95,192.82 88.45,189.71Z" fill="#9ea0a3" />
  <path d="M85.51,180.73C91.53,178.75 94.13,170.18 91.32,161.59C88.5,152.99 81.33,147.62 75.3,149.6C69.28,151.57 66.68,160.14 69.5,168.74C72.32,177.34 79.49,182.7 85.51,180.73Z" fill="#bbbcbe" />
  <path d="M82.62,171.9C85.22,171.05 86.35,167.34 85.13,163.62C83.91,159.9 80.81,157.57 78.2,158.43C75.59,159.28 74.46,162.99 75.68,166.71C76.9,170.43 80.01,172.76 82.62,171.9Z" fill="#bbbcbe" />
  <path d="M108.12,167.11C107.5,153.36 98.51,140.51 88.05,138.39C86.48,138.07 84.96,138.02 83.51,138.2L74.77,140.08C76.21,139.9 77.72,139.95 79.29,140.27C89.76,142.38 98.75,155.24 99.36,168.99C99.98,182.73 92,192.16 81.53,190.05C81.31,190 81.08,189.95 80.86,189.89V189.93C92.05,193.53 100.82,185.97 100.82,185.97C105.58,182.49 108.5,175.63 108.12,167.11Z" fill="#bbbcbe" />
  <path d="M84.4,192.34C83.33,192.34 82.24,192.23 81.14,192.01C69.85,189.73 60.12,176.01 59.46,161.42C59.08,153.05 61.69,145.84 66.61,141.62C70.23,138.51 74.87,137.34 79.68,138.31C90.97,140.59 100.7,154.31 101.36,168.9C101.74,177.27 99.13,184.48 94.21,188.7C91.41,191.1 88.01,192.34 84.4,192.34ZM76.4,141.97C73.74,141.97 71.29,142.88 69.22,144.65C65.24,148.06 63.14,154.1 63.46,161.23C64.04,174.09 72.33,186.14 81.93,188.08C85.55,188.81 88.9,187.97 91.61,185.65C95.59,182.24 97.69,176.2 97.37,169.07C96.79,156.21 88.5,144.16 78.9,142.22C78.05,142.05 77.22,141.96 76.4,141.96V141.97Z" fill="#565657" />
  <path d="M82.95,183.13C82.22,183.13 81.48,183.06 80.73,182.9C73.13,181.36 66.84,172.54 66.4,162.82C66.15,157.29 67.9,152.5 71.19,149.68C73.66,147.56 76.83,146.76 80.1,147.42C87.7,148.95 93.99,157.78 94.43,167.5C94.68,173.03 92.93,177.82 89.64,180.64C87.73,182.27 85.41,183.13 82.95,183.13ZM77.87,151.19C76.35,151.19 74.96,151.71 73.78,152.71C71.46,154.69 70.19,158.41 70.38,162.64C70.73,170.35 75.82,177.83 81.51,178.98C83.58,179.4 85.49,178.92 87.03,177.6C89.35,175.62 90.62,171.9 90.43,167.67C90.08,159.96 84.99,152.48 79.3,151.33C78.81,151.23 78.34,151.18 77.87,151.18V151.19Z" fill="#565657" />
  <path d="M81.52,174.07C81.13,174.07 80.73,174.03 80.33,173.95C76.55,173.19 73.43,168.9 73.22,164.2C73.1,161.45 74,159.05 75.69,157.6C77.03,156.45 78.75,156.01 80.51,156.37C84.29,157.13 87.41,161.42 87.62,166.12C87.74,168.87 86.84,171.27 85.15,172.72C84.11,173.61 82.86,174.07 81.52,174.07ZM79.31,160.25C78.92,160.25 78.58,160.38 78.28,160.64C77.54,161.27 77.14,162.54 77.2,164.02C77.34,167.13 79.37,169.68 81.11,170.03C81.66,170.14 82.13,170.03 82.53,169.68C83.27,169.05 83.67,167.78 83.6,166.3C83.46,163.19 81.43,160.64 79.69,160.29C79.55,160.26 79.42,160.25 79.29,160.25H79.31Z" fill="#565657" />
  <path d="M72.55,142.56C71.71,142.56 70.91,142.03 70.63,141.2C70.45,140.66 70.51,140.07 70.79,139.58C71.07,139.09 71.55,138.73 72.1,138.61H72.13C73.18,138.38 74.22,139.02 74.49,140.06C74.76,141.1 74.16,142.17 73.13,142.48C72.94,142.54 72.74,142.57 72.55,142.57V142.56Z" fill="#565657" />
  <path d="M87.05,192.91C84.93,192.91 82.65,192.6 80.26,191.83C79.55,191.6 79.02,190.99 78.9,190.25C78.79,189.59 79.02,188.9 79.52,188.44C80.01,187.99 80.7,187.79 81.35,187.95L81.46,187.98C81.62,188.02 81.78,188.06 81.94,188.09C85.56,188.82 88.91,187.98 91.62,185.66C95.6,182.25 97.7,176.21 97.38,169.08C96.8,156.22 88.51,144.17 78.91,142.23C77.59,141.96 76.29,141.91 75.03,142.06C73.97,142.2 72.99,141.46 72.81,140.41C72.63,139.35 73.31,138.35 74.36,138.12L83.1,136.24C83.16,136.23 83.22,136.22 83.27,136.21C84.95,136 86.69,136.07 88.45,136.43C99.75,138.71 109.47,152.43 110.13,167.02C110.53,175.85 107.52,183.52 102.07,187.54C101.32,188.17 95.37,192.91 87.05,192.91ZM84.69,140.1C93.72,144.77 100.8,156.52 101.36,168.89C101.68,175.94 99.88,182.17 96.36,186.48C98.33,185.45 99.48,184.47 99.51,184.44C99.55,184.41 99.59,184.37 99.64,184.34C104.04,181.12 106.46,174.71 106.12,167.19C105.54,154.33 97.25,142.28 87.65,140.34C86.65,140.14 85.67,140.05 84.69,140.09V140.1Z" fill="#565657" />
  <path d="M137.42,166.87C124.16,156.73 122.46,139.95 132.64,131.25C132.46,131.37 132.27,131.48 132.06,131.57L126.07,134.4C126.07,134.4 120.02,137.93 89.54,123.12C87.76,122.25 86.63,120.44 86.63,118.46C86.63,118.31 86.65,118.16 86.66,118.01L86.63,118.05C86.63,112.15 91.34,108.79 93.96,107.38L86.08,102.52C67.58,107.86 63.31,114.97 63.31,114.97L57.31,128.51C61.59,126.32 67.08,124.66 73.96,124.57C73.98,124.57 101.29,123.37 101.29,158.29C101.29,161.89 101.11,165.22 100.34,168.21C100.13,169.04 99.56,169.65 98.85,169.98L98.75,170.03C98.75,170.03 98.73,170.03 98.72,170.04L82.8,176.82C83.85,178.21 85.6,179.99 88.96,181.37C94.27,183.55 121.81,196.67 133.13,202.08C135.74,203.33 138.86,202.05 139.86,199.33L166.09,175.07C156.72,176.16 145.89,173.35 137.41,166.86L137.42,166.87Z" fill="#75c3f0" />
  <path d="M137.42,166.87C124.16,156.73 122.46,139.95 132.64,131.25C132.46,131.37 132.27,131.48 132.06,131.57L126.07,134.4C126.07,134.4 120.02,137.93 89.54,123.12C87.76,122.25 86.63,120.44 86.63,118.46C86.63,118.31 86.65,118.16 86.66,118.01L86.63,118.05C86.63,112.15 91.34,108.79 93.96,107.38L86.08,102.52C67.58,107.86 63.31,114.97 63.31,114.97L57.31,128.51C61.59,126.32 67.08,124.66 73.96,124.57C73.98,124.57 101.29,123.37 101.29,158.29C101.29,161.89 101.11,165.22 100.34,168.21C100.13,169.04 99.56,169.65 98.85,169.98L98.75,170.03C98.75,170.03 98.73,170.03 98.72,170.04L82.8,176.82C83.85,178.21 85.6,179.99 88.96,181.37C94.27,183.55 121.81,196.67 133.13,202.08C135.74,203.33 138.86,202.05 139.86,199.33L166.09,175.07C156.72,176.16 145.89,173.35 137.41,166.86L137.42,166.87Z" fill="#75c3f0" />
  <path d="M131.5,182.64C135.13,187.47 139.25,191.86 143.7,195.78L166.09,175.07C156.72,176.16 145.89,173.35 137.41,166.86C124.15,156.72 122.45,139.94 132.63,131.24C132.45,131.36 132.26,131.47 132.05,131.56L126.06,134.39C126.06,134.39 124.6,135.23 119.54,134.36C116.17,149.27 119.73,166.99 131.49,182.63L131.5,182.64Z" fill="#4db4ef" />
  <path d="M135.26,204.56C134.24,204.56 133.22,204.33 132.28,203.89C123.32,199.61 93.64,185.45 88.21,183.22C85.2,181.98 82.91,180.28 81.21,178.02C80.84,177.53 80.72,176.89 80.88,176.3C81.04,175.71 81.46,175.22 82.03,174.98L97.89,168.23C97.89,168.23 97.97,168.19 98.01,168.17C98.15,168.1 98.34,167.97 98.4,167.72C99.18,164.68 99.29,161.25 99.29,158.3C99.29,147.11 96.41,138.67 90.73,133.21C83.54,126.29 74.13,126.58 74.04,126.58C68.21,126.66 62.9,127.91 58.22,130.3C57.47,130.69 56.55,130.55 55.94,129.97C55.32,129.39 55.14,128.48 55.49,127.71L61.49,114.17C61.52,114.1 61.56,114.02 61.6,113.95C61.79,113.63 66.49,106.1 85.53,100.6C86.07,100.44 86.66,100.52 87.14,100.82L95.02,105.68C95.63,106.06 95.99,106.73 95.97,107.44C95.95,108.15 95.55,108.8 94.92,109.14C92.63,110.38 88.81,113.12 88.64,117.72C88.66,117.87 88.67,118.03 88.65,118.19C88.65,118.3 88.63,118.38 88.63,118.46C88.63,119.67 89.33,120.79 90.42,121.32C116.71,134.09 124.25,132.84 125.14,132.62C125.17,132.62 125.19,132.61 125.21,132.6C125.21,132.6 125.22,132.6 125.23,132.6L131.22,129.77C131.34,129.71 131.45,129.65 131.55,129.58C132.19,129.16 133.02,129.14 133.67,129.54C134.22,129.87 134.58,130.45 134.64,131.09C134.69,131.73 134.44,132.36 133.95,132.78C130.02,136.13 127.94,140.96 128.09,146.36C128.28,153.41 132.13,160.31 138.65,165.29C146.45,171.26 156.63,174.17 165.88,173.1C166.73,173 167.57,173.46 167.93,174.25C168.29,175.04 168.11,175.97 167.47,176.55L141.56,200.51C140.83,202.11 139.51,203.39 137.88,204.05C137.05,204.39 136.16,204.56 135.27,204.56H135.26ZM86.26,177.52C87.23,178.3 88.38,178.96 89.73,179.51C95.1,181.72 122.48,194.76 134,200.27C134.75,200.63 135.58,200.65 136.35,200.34C137.12,200.03 137.7,199.42 137.99,198.64C138.1,198.34 138.28,198.07 138.51,197.86L160.77,177.28C152.15,176.99 143.28,173.86 136.21,168.45C128.73,162.73 124.31,154.71 124.08,146.45C123.98,142.87 124.69,139.49 126.13,136.48C123.3,137.2 114.23,137.32 88.67,124.91C86.22,123.72 84.63,121.18 84.63,118.45C84.63,118.37 84.63,118.28 84.63,118.2C84.63,118.15 84.63,118.09 84.63,118.03C84.63,112.96 87.48,109.53 90.23,107.4L85.8,104.67C70.25,109.32 65.62,115.17 65.08,115.92L61.2,124.68C65.16,123.32 69.43,122.61 73.95,122.55C74.35,122.54 85.08,122.19 93.51,130.27C100.01,136.51 103.31,145.93 103.31,158.27C103.31,161.47 103.19,165.22 102.3,168.69C101.97,169.96 101.13,171.03 99.96,171.65C99.87,171.71 99.77,171.76 99.67,171.8L99.57,171.84L86.28,177.5L86.26,177.52Z" fill="#565657" />
  <path d="M137.66,201.92L149.52,172.78C150.96,168.82 151.21,164.53 150.23,160.44L141.97,125.72C139.95,117.21 144.35,108.49 152.39,105.05L169.02,97.95C173.98,95.83 179.67,98.58 181.11,103.78L192.32,144.52C193.51,148.83 193.32,153.4 191.79,157.6L183.36,180.75L137.65,201.92H137.66Z" fill="#c4e2f3" />
  <path d="M153.66,194.52L183.38,180.76L191.81,157.61C193.34,153.41 193.52,148.84 192.34,144.53L181.13,103.79C179.7,98.59 174.01,95.84 169.04,97.96L156.63,103.26C154.43,107.48 153.69,112.45 154.86,117.37L164.21,156.66C165.31,161.29 165.03,166.15 163.4,170.62L153.67,194.52H153.66Z" fill="#98d0f0" />
  <path d="M167.48,188.12L183.37,180.76L191.8,157.61C193.33,153.41 193.51,148.84 192.33,144.53L181.12,103.79C179.79,98.95 174.77,96.25 170.09,97.59C168.12,101.67 167.51,106.41 168.62,111.09L177.97,150.38C179.07,155.01 178.79,159.87 177.16,164.34L167.48,188.11V188.12Z" fill="#75c3f0" />
  <path d="M137.66,203.92C137.16,203.92 136.66,203.73 136.28,203.37C135.69,202.8 135.5,201.93 135.81,201.17L147.67,172.03C148.95,168.5 149.18,164.63 148.29,160.91L140.03,126.19C137.77,116.71 142.64,107.05 151.61,103.22L168.24,96.12C171.14,94.88 174.43,94.96 177.26,96.33C180.09,97.7 182.2,100.22 183.04,103.26L194.25,144C195.55,148.73 195.35,153.68 193.67,158.29L185.24,181.44C185.06,181.94 184.68,182.35 184.2,182.57L138.49,203.74C138.22,203.86 137.93,203.93 137.65,203.93L137.66,203.92ZM172.53,99.24C171.61,99.24 170.69,99.42 169.82,99.79L153.19,106.89C146.02,109.95 142.13,117.67 143.93,125.25L152.19,159.97C153.26,164.46 152.99,169.12 151.41,173.46L141.43,197.97L181.78,179.28L189.93,156.91C191.32,153.08 191.49,148.98 190.41,145.05L179.2,104.31C178.67,102.39 177.34,100.79 175.54,99.92C174.59,99.46 173.57,99.23 172.54,99.23L172.53,99.24Z" fill="#565657" />
  <path d="M90.51,46.38L110.17,57.44C112.51,58.75 112.39,62.16 109.97,63.31L76.63,79.14C75.66,79.6 74.53,79.56 73.59,79.04L51.52,66.63C49.18,65.32 49.3,61.91 51.72,60.76L82.57,46.11C85.11,44.91 88.07,45.01 90.51,46.38Z" fill="#ffc042" />
  <path d="M45.95,71.14C44.85,71.14 43.95,70.24 43.95,69.14C43.95,65.01 46.24,61.3 49.93,59.45L52.16,58.33C53.15,57.83 54.35,58.23 54.84,59.22C55.34,60.21 54.94,61.41 53.95,61.91L51.72,63.03C49.39,64.2 47.95,66.54 47.95,69.15C47.95,70.25 47.05,71.15 45.95,71.15V71.14Z" fill="#565657" />
  <path d="M115.73,67.78C114.63,67.78 113.73,66.88 113.73,65.78C113.73,63.34 112.42,61.06 110.31,59.83L109.17,59.17C108.21,58.62 107.89,57.39 108.44,56.44C108.99,55.49 110.22,55.16 111.17,55.71L112.31,56.37C115.65,58.31 117.73,61.91 117.73,65.78C117.73,66.88 116.83,67.78 115.73,67.78Z" fill="#565657" />
  <path d="M75.21,81.46C74.31,81.46 73.41,81.23 72.61,80.78L50.54,68.36C48.8,67.38 47.77,65.54 47.84,63.55C47.91,61.56 49.07,59.79 50.87,58.94L81.9,44.21C84.9,42.78 88.43,42.91 91.33,44.54L111.17,55.7C112.91,56.68 113.94,58.52 113.87,60.51C113.8,62.5 112.64,64.27 110.84,65.12L77.5,80.95C76.78,81.29 76,81.46 75.22,81.46H75.21ZM86.28,47.22C85.36,47.22 84.45,47.42 83.6,47.82L52.57,62.55C51.92,62.86 51.83,63.45 51.82,63.68C51.82,63.92 51.86,64.51 52.49,64.86L74.56,77.27C74.93,77.48 75.38,77.49 75.76,77.31L109.1,61.48C109.75,61.17 109.84,60.58 109.85,60.35C109.85,60.11 109.81,59.52 109.18,59.17L89.34,48.01C88.39,47.48 87.33,47.21 86.27,47.21L86.28,47.22Z" fill="#565657" />
  <path d="M113.85,105.09L79.81,121.28C77.62,122.32 75.08,120.72 75.08,118.29V81.96C75.08,80.68 75.81,79.52 76.97,78.97L111.01,62.78C113.2,61.74 115.74,63.34 115.74,65.77V102.1C115.74,103.38 115.01,104.54 113.85,105.09Z" fill="#ffc042" />
  <path d="M89.49,116.67L113.84,105.09C114.99,104.54 115.73,103.38 115.73,102.1V65.77C115.73,63.34 113.2,61.74 111,62.78L89.49,73.01V116.66V116.67Z" fill="#feb016" />
  <path d="M103.82,109.86L113.85,105.09C115,104.54 115.74,103.38 115.74,102.1V65.77C115.74,63.34 113.21,61.74 111.01,62.78L103.82,66.2V109.85V109.86Z" fill="#e09706" />
  <path d="M47.63,108.09L70.14,120.75C72.34,121.99 75.07,120.4 75.07,117.87V81.81C75.07,80.62 74.43,79.51 73.38,78.93L50.87,66.27C48.67,65.03 45.94,66.62 45.94,69.15V105.21C45.94,106.4 46.58,107.51 47.63,108.09Z" fill="#ffc042" />
  <path d="M54.49,68.3L50.87,66.27C48.67,65.03 45.94,66.62 45.94,69.15V105.21C45.94,106.4 46.58,107.51 47.63,108.09L54.49,111.95V68.3Z" fill="#fcda97" />
  <path d="M75.51,124.17C73.48,124.17 71.45,123.68 69.59,122.72L69.23,122.53C68.25,122.02 67.86,120.82 68.37,119.83C68.88,118.85 70.08,118.47 71.07,118.97L71.43,119.16C73.8,120.39 76.56,120.49 79.01,119.44C80.02,119 81.2,119.47 81.64,120.49C82.08,121.5 81.61,122.68 80.59,123.12C78.96,123.82 77.23,124.17 75.51,124.17Z" fill="#565657" />
  <path d="M59.84,80.71C56,78.83 52.77,80.98 52.64,85.51C52.59,87.22 53,89.11 53.81,90.93L54,91.34L57.45,99.15C57.45,99.15 57.86,100.21 58.83,100.68L59.11,100.82L59.48,101L59.7,101.11C60.66,101.58 61.13,100.96 61.13,100.96L64.93,96.7L65.11,96.48C66.02,95.5 66.5,94.05 66.55,92.33C66.71,87.82 63.69,82.6 59.85,80.72L59.84,80.71ZM62.4,92.73L62.2,92.94L59.41,96.08L56.87,90.34L56.68,89.91C56.27,88.98 56.05,88.02 56.08,87.15C56.15,84.85 57.78,83.75 59.74,84.71C61.7,85.67 63.22,88.31 63.16,90.62C63.13,91.51 62.87,92.22 62.41,92.72L62.4,92.73Z" fill="#009e81" />
  <path d="M59.2,102.31C58.09,101.77 57.24,102.36 57.21,103.62C57.18,104.82 57.97,106.22 59.05,106.78C60.18,107.33 61.03,106.74 61.07,105.51V105.48C61.11,104.25 60.31,102.85 59.21,102.31H59.2Z" fill="#009e81" />
  <path d="M78.38,123.6C77.4,123.6 76.42,123.32 75.55,122.78C74,121.8 73.08,120.13 73.08,118.29V81.96C73.08,79.92 74.27,78.04 76.11,77.17L110.15,60.98C111.8,60.19 113.72,60.31 115.26,61.29C116.81,62.27 117.73,63.94 117.73,65.78V102.11C117.73,104.15 116.54,106.03 114.7,106.9L80.66,123.09C79.93,123.44 79.15,123.61 78.38,123.61V123.6ZM112.42,64.47C112.25,64.47 112.06,64.5 111.86,64.6L77.82,80.79C77.37,81.01 77.07,81.47 77.07,81.97V118.3C77.07,118.95 77.5,119.29 77.68,119.4C77.86,119.52 78.35,119.76 78.94,119.48L112.98,103.29C113.43,103.07 113.73,102.61 113.73,102.11V65.78C113.73,65.13 113.3,64.79 113.12,64.68C113,64.6 112.75,64.47 112.42,64.47Z" fill="#565657" />
  <path d="M71.77,123.19C70.88,123.19 69.98,122.96 69.17,122.5L46.66,109.84C44.99,108.9 43.95,107.13 43.95,105.22V69.16C43.95,67.25 44.93,65.54 46.58,64.58C48.23,63.62 50.2,63.6 51.86,64.54L74.37,77.2C76.04,78.14 77.07,79.91 77.07,81.82V117.88C77.07,119.79 76.09,121.5 74.44,122.46C73.6,122.95 72.68,123.19 71.76,123.19H71.77ZM49.26,67.83C48.96,67.83 48.72,67.94 48.59,68.01C48.4,68.12 47.94,68.46 47.94,69.14V105.2C47.94,105.67 48.19,106.11 48.61,106.34L71.12,119C71.71,119.33 72.23,119.1 72.42,118.99C72.61,118.88 73.07,118.54 73.07,117.86V81.8C73.07,81.33 72.82,80.89 72.4,80.66L49.89,68C49.66,67.87 49.45,67.83 49.26,67.83Z" fill="#565657" />
  <path d="M80.32,176.71C81.89,177.59 83.9,176.77 84.35,175.03C85.12,172.04 85.46,168.7 85.3,165.11C84.58,149.13 74.13,134.18 61.96,131.72C51.03,129.51 42.42,138.14 41.31,151.5C41.15,153.4 42.1,155.22 43.76,156.15L80.32,176.71Z" fill="#ffffff" />
  <path d="M43.75,156.15L80.31,176.71C81.88,177.59 83.89,176.77 84.34,175.03C85.11,172.04 85.45,168.7 85.29,165.11C84.94,157.32 82.27,149.77 78.22,143.8C75.18,142.19 72.02,141.03 68.79,140.37C57.58,138.1 47.79,142.48 41.33,151.27C41.33,151.35 41.31,151.43 41.31,151.51C41.15,153.41 42.1,155.23 43.76,156.16L43.75,156.15Z" fill="#c4e2f3" />
  <path d="M82.61,176.89L82.69,176.87C82.66,176.88 82.63,176.88 82.61,176.89Z" fill="#4db4ef" />
  <path d="M101.29,158.29C101.29,123.37 73.97,124.57 73.96,124.57C52.9,124.85 44.81,139.8 44.81,139.8C48.51,133.54 54.72,130.25 61.96,131.71C74.13,134.17 84.58,149.12 85.3,165.1C85.46,168.69 85.12,172.03 84.35,175.02C84.13,175.87 83.54,176.49 82.81,176.82L98.73,170.04C98.73,170.04 98.75,170.04 98.76,170.03L98.86,169.99C99.56,169.65 100.13,169.04 100.35,168.21C101.12,165.22 101.3,161.89 101.3,158.29H101.29Z" fill="#4db4ef" />
  <path d="M93.12,132.8C85.07,124.1 73.97,124.57 73.96,124.57C52.9,124.85 44.81,139.8 44.81,139.8C48.51,133.54 54.72,130.25 61.96,131.71C63.62,132.04 65.24,132.62 66.81,133.39C71.15,131.95 76.2,131 82.01,130.92C82.01,130.92 86.95,130.7 93.12,132.79V132.8Z" fill="#dbebf5" />
  <path d="M81.68,179.07C80.87,179.07 80.07,178.86 79.34,178.45L42.78,157.89C40.45,156.58 39.1,154.01 39.32,151.33C39.98,143.36 43.27,136.61 48.35,132.8C52.38,129.77 57.22,128.72 62.36,129.76C75.36,132.39 86.54,148.2 87.3,165.02C87.47,168.73 87.13,172.27 86.29,175.53C85.92,176.95 84.93,178.11 83.57,178.69C82.96,178.95 82.32,179.08 81.68,179.08V179.07ZM58.6,133.37C55.73,133.37 53.06,134.26 50.74,135.99C46.58,139.12 43.86,144.83 43.29,151.66C43.2,152.78 43.76,153.86 44.73,154.4L81.29,174.96C81.59,175.13 81.88,175.04 81.99,175C82.11,174.95 82.33,174.82 82.4,174.53C83.14,171.65 83.44,168.52 83.29,165.2C82.61,150.11 72.86,135.97 61.55,133.68C60.55,133.48 59.56,133.38 58.59,133.38L58.6,133.37Z" fill="#565657" />
  <path d="M82.64,178.88C82.13,178.88 81.62,178.71 81.25,178.36C80.74,177.88 80.52,177.16 80.66,176.48C80.81,175.8 81.3,175.23 81.96,175.01C82,175 82.06,174.98 82.11,174.97C83.09,174.66 84.15,175.16 84.55,176.12C84.97,177.13 84.49,178.29 83.49,178.72C83.4,178.76 83.31,178.79 83.22,178.81C83.19,178.81 83.16,178.83 83.13,178.83C82.97,178.87 82.8,178.88 82.63,178.88H82.64Z" fill="#565657" />
  <path d="M82.81,178.82C82.04,178.82 81.3,178.37 80.97,177.61C80.53,176.6 80.99,175.43 82,174.99C82.15,174.92 82.34,174.79 82.41,174.53C83.15,171.65 83.45,168.51 83.3,165.2C82.62,150.11 72.87,135.97 61.56,133.68C55.42,132.44 49.94,135.04 46.53,140.83C46.22,141.36 45.67,141.72 45.06,141.8C44.45,141.87 43.83,141.67 43.39,141.23C42.76,140.6 42.62,139.64 43.04,138.86C43.39,138.21 51.95,122.87 73.93,122.58C74.33,122.57 85.06,122.22 93.49,130.3C99.99,136.54 103.29,145.96 103.29,158.3C103.29,161.5 103.17,165.24 102.28,168.72C101.95,169.99 101.11,171.06 99.94,171.69C99.85,171.75 99.76,171.8 99.66,171.84L99.56,171.88L83.6,178.67C83.34,178.78 83.08,178.83 82.82,178.83L82.81,178.82ZM60,129.43C60.78,129.49 61.56,129.6 62.35,129.76C75.35,132.39 86.53,148.2 87.29,165.02C87.41,167.77 87.26,170.42 86.83,172.94L97.88,168.24C97.88,168.24 97.96,168.2 98,168.18C98.14,168.11 98.33,167.98 98.39,167.73C99.17,164.69 99.28,161.26 99.28,158.31C99.28,147.12 96.4,138.68 90.72,133.22C83.53,126.3 74.12,126.59 74.03,126.59C68.39,126.66 63.75,127.82 59.99,129.45L60,129.43Z" fill="#565657" />
  <path d="M132.06,131.57L126.07,134.4C124.69,135.05 123.16,133.82 123.51,132.34C124.32,128.82 124.3,125.15 123.43,121.64C122.98,119.81 123.88,117.92 125.58,117.11L130.71,114.69C132.48,113.85 134.58,114.87 135.02,116.78C135.83,120.3 135.8,123.97 134.93,127.48L134.73,128.31C134.38,129.74 133.4,130.94 132.06,131.57Z" fill="#f86f2a" />
  <path d="M123.51,132.33C124.32,128.81 124.3,125.14 123.43,121.63C123.05,120.1 123.63,118.54 124.82,117.6C123.19,118.54 118.96,120.42 112.56,119.38C107.61,118.57 99.44,115.76 93.59,113.6C90.21,112.35 86.63,114.86 86.63,118.46C86.63,120.44 87.76,122.25 89.54,123.12C120.02,137.93 126.07,134.4 126.07,134.4C124.69,135.05 123.16,133.82 123.51,132.34V132.33Z" fill="#f9b390" />
  <path d="M125.59,117.11L130.72,114.69C131.5,114.32 132.33,114.33 133.06,114.59V114.57L125.7,111.97C123.05,111.03 120.54,109.71 118.25,108.07L112.73,104.11C109.77,101.98 105.88,101.65 102.59,103.23L94.63,107.07C91.58,108.54 91.8,112.95 94.98,114.11C100.68,116.18 107.99,118.63 112.56,119.38C118.96,120.42 123.19,118.54 124.82,117.6C125.06,117.41 125.31,117.24 125.59,117.11Z" fill="#f78b54" />
  <path d="M123.6,119.27C123.57,119.34 123.55,119.4 123.52,119.47C123.54,119.4 123.57,119.34 123.6,119.27Z" fill="#f78b54" />
  <path d="M123.34,120.39C123.33,120.52 123.33,120.65 123.34,120.78C123.34,120.65 123.34,120.52 123.34,120.39Z" fill="#f78b54" />
  <path d="M172.68,87.76C174.67,81.71 172.84,75.68 168.6,74.29C164.36,72.9 159.31,76.67 157.33,82.73C155.35,88.78 157.18,94.81 161.42,96.2C165.66,97.59 170.7,93.81 172.68,87.76Z" fill="#f9efdc" />
  <path d="M173.46,83.53C173.61,80.21 172.63,77.46 170.95,75.78C165.85,78.22 161.81,84.85 161.49,91.89C161.42,93.48 161.55,94.96 161.84,96.32C162.67,96.52 163.56,96.55 164.49,96.36C169.16,95.42 173.17,89.68 173.45,83.54L173.46,83.53Z" fill="#ffc042" />
  <path d="M161.25,96.14C158.29,95.07 156.34,91.55 156.55,86.95C156.83,80.81 160.84,75.07 165.51,74.13C166.65,73.9 167.72,73.98 168.69,74.32L154.86,69.78C153.91,69.47 152.85,69.39 151.73,69.62C147.06,70.56 143.05,76.3 142.77,82.44C142.56,87.17 144.63,90.75 147.74,91.71L161.26,96.15L161.25,96.14Z" fill="#c4e2f3" />
  <path d="M161.25,96.14L161.58,96.25C161.47,96.2 161.35,96.18 161.24,96.14H161.25Z" fill="#c4e2f3" />
  <path d="M164.5,96.35C163.38,96.58 162.32,96.5 161.36,96.18C161.44,96.2 161.51,96.22 161.59,96.24L161.26,96.14L149.98,92.44V106.34C150.75,105.86 151.56,105.42 152.42,105.06L165.54,99.46V96.06C165.21,96.18 164.87,96.28 164.52,96.35H164.5Z" fill="#4db4ef" />
  <path d="M158.81,94.45C158.81,94.45 158.79,94.43 158.78,94.41C158.79,94.42 158.8,94.43 158.81,94.45Z" fill="#4db4ef" />
  <path d="M163.22,98.48C161.35,98.48 159.58,97.83 158.13,96.59C155.67,94.48 154.37,90.94 154.55,86.86C154.87,79.76 159.51,73.3 165.11,72.17C167.6,71.67 170,72.28 171.89,73.89C174.35,75.99 175.65,79.54 175.47,83.62C175.15,90.73 170.51,97.18 164.91,98.31C164.34,98.42 163.78,98.48 163.23,98.48H163.22ZM166.8,75.99C166.51,75.99 166.21,76.02 165.9,76.08C162.15,76.84 158.78,81.85 158.54,87.03C158.41,89.83 159.23,92.26 160.72,93.54C161.67,94.36 162.81,94.64 164.1,94.38C167.86,93.62 171.23,88.61 171.46,83.43C171.59,80.63 170.77,78.2 169.28,76.92C168.55,76.3 167.72,75.99 166.8,75.99Z" fill="#565657" />
  <path d="M161.25,98.14C161.04,98.14 160.83,98.11 160.63,98.04L147.11,93.61C147.04,93.59 146.97,93.56 146.91,93.53C142.93,92.16 140.53,87.8 140.78,82.34C141.1,75.24 145.74,68.78 151.34,67.65C152.71,67.38 154.04,67.43 155.3,67.82C155.36,67.83 155.42,67.85 155.48,67.87L169.31,72.4C170.27,72.72 170.85,73.7 170.65,74.69C170.54,75.26 170.18,75.75 169.68,76.04C169.18,76.33 168.58,76.39 168.03,76.2C167.37,75.97 166.66,75.93 165.9,76.08C162.15,76.84 158.78,81.85 158.54,87.03C158.38,90.56 159.74,93.46 161.93,94.25C162.96,94.62 163.5,95.75 163.14,96.78C162.85,97.61 162.08,98.13 161.25,98.13V98.14ZM148.56,89.87L155.21,92.05C154.7,90.5 154.46,88.73 154.55,86.85C154.79,81.52 157.46,76.56 161.14,73.93L154.4,71.72C154.34,71.71 154.28,71.69 154.21,71.67C153.56,71.45 152.85,71.41 152.12,71.56C148.36,72.32 144.99,77.33 144.76,82.51C144.6,86.15 146.03,89.07 148.32,89.78C148.4,89.8 148.48,89.83 148.56,89.87Z" fill="#565657" />
  <path d="M161.58,98.25C161.37,98.25 161.17,98.22 160.97,98.15L160.71,98.07C160.71,98.07 160.62,98.04 160.57,98.02C159.54,97.65 159,96.52 159.36,95.49C159.72,94.46 160.84,93.9 161.87,94.24L162.15,94.32C162.66,94.47 163.09,94.82 163.35,95.29C163.6,95.76 163.66,96.31 163.5,96.82C163.34,97.33 162.98,97.77 162.51,98.01C162.22,98.16 161.9,98.24 161.58,98.24V98.25Z" fill="#565657" />
  <path d="M125.86,73.02C127.36,68.45 125.98,63.89 122.78,62.84C119.58,61.79 115.77,64.65 114.27,69.22C112.77,73.79 114.15,78.35 117.35,79.4C120.55,80.45 124.36,77.59 125.86,73.02Z" fill="#565657" />
  <path d="M118.72,81.61C117.19,81.61 115.75,81.08 114.56,80.06C112.59,78.37 111.54,75.55 111.69,72.32C111.94,66.74 115.62,61.67 120.06,60.77C122.09,60.36 124.05,60.86 125.59,62.18C127.56,63.87 128.61,66.69 128.46,69.92C128.21,75.5 124.53,80.57 120.09,81.47C119.63,81.56 119.17,81.61 118.72,81.61ZM121.42,64.63C121.23,64.63 121.04,64.65 120.84,64.69C118.21,65.22 115.84,68.8 115.67,72.5C115.58,74.46 116.13,76.15 117.15,77.02C117.75,77.53 118.47,77.71 119.29,77.55C121.92,77.02 124.29,73.44 124.46,69.74C124.55,67.78 124,66.09 122.98,65.22C122.52,64.83 122,64.63 121.42,64.63Z" fill="#565657" />
  <path d="M133.92,93.93C135.83,93.3 136.65,90.58 135.76,87.86C134.86,85.13 132.59,83.42 130.68,84.05C128.77,84.67 127.94,87.39 128.84,90.12C129.73,92.85 132.01,94.56 133.92,93.93Z" fill="#ffffff" />
  <path d="M133.12,96.06C132.8,96.06 132.47,96.03 132.13,95.96C129.13,95.35 126.65,91.99 126.49,88.31C126.39,86.13 127.12,84.21 128.49,83.04C129.6,82.09 131.01,81.73 132.48,82.02C135.48,82.63 137.96,85.99 138.12,89.67C138.22,91.85 137.49,93.77 136.12,94.94C135.26,95.68 134.22,96.06 133.12,96.06ZM131.5,85.92C131.34,85.92 131.22,85.97 131.09,86.08C130.78,86.34 130.44,87.04 130.49,88.13C130.58,90.1 131.85,91.82 132.93,92.04C133.18,92.09 133.35,92.04 133.52,91.9C133.83,91.64 134.17,90.94 134.12,89.85C134.03,87.88 132.76,86.16 131.68,85.94C131.61,85.93 131.55,85.92 131.5,85.92Z" fill="#565657" />
  <path d="M144.47,75.96L130.15,84.3V84.32C130.71,83.98 131.36,83.84 132.08,83.99C134.19,84.42 136,87 136.12,89.77C136.22,92.01 135.17,93.66 133.65,93.99V94.01L146.91,91.37C146.91,91.37 152.69,82.65 144.47,75.96Z" fill="#75c3f0" />
  <path d="M139.03,81.12C138.6,81.12 138.16,80.98 137.8,80.69C137.55,80.49 137.27,80.33 136.98,80.21L119.32,72.97C118.3,72.55 117.81,71.38 118.23,70.36C118.65,69.34 119.82,68.85 120.84,69.27L138.5,76.51C139.13,76.77 139.73,77.12 140.27,77.54C141.14,78.22 141.29,79.48 140.61,80.35C140.22,80.85 139.63,81.12 139.03,81.12Z" fill="#565657" />
  <path d="M135.6,89.26C135.52,87.42 134.32,85.71 132.92,85.42C132.57,85.35 132.23,85.38 131.94,85.49L115.77,91.82C116.06,91.72 116.38,91.7 116.71,91.77C118.11,92.05 119.31,93.77 119.39,95.61C119.45,96.98 118.87,98.03 118,98.35L134.19,92.01L134.28,91.98C135.11,91.61 135.66,90.59 135.6,89.27V89.26Z" fill="#565657" />
  <path d="M117.94,98.38C119.21,97.96 119.76,96.16 119.17,94.35C118.57,92.54 117.06,91.41 115.79,91.82C114.52,92.24 113.98,94.05 114.57,95.86C115.16,97.67 116.67,98.8 117.94,98.38Z" fill="#565657" />
  <path d="M133.66,96C132.84,96 132.08,95.49 131.78,94.69C131.58,94.15 131.62,93.53 131.9,93.02C132.18,92.51 132.66,92.14 133.23,92.02C133.7,91.92 134.17,91.12 134.12,89.85C134.03,87.88 132.76,86.16 131.68,85.94C131.49,85.9 131.35,85.93 131.19,86.02C130.67,86.34 130.02,86.4 129.45,86.18C128.87,85.96 128.43,85.5 128.25,84.91C127.97,84.02 128.34,83.03 129.14,82.56L143.46,74.22C144.18,73.8 145.08,73.87 145.73,74.4C153.34,80.6 150.92,88.93 148.57,92.47C148.28,92.91 147.82,93.22 147.29,93.33L134.04,95.97C133.91,96 133.78,96.01 133.65,96.01L133.66,96ZM135.36,83.58C136.92,85.03 138,87.29 138.11,89.68C138.13,90.17 138.11,90.64 138.05,91.1L145.63,89.59C146.6,87.74 148.53,82.79 144.21,78.43L135.35,83.59L135.36,83.58Z" fill="#565657" />
  <path d="M149.96,108.34C149.63,108.34 149.29,108.26 148.99,108.09C148.36,107.74 147.96,107.07 147.96,106.34V92.44C147.96,91.8 148.27,91.2 148.79,90.82C149.31,90.44 149.98,90.34 150.59,90.54L161.87,94.24C161.87,94.24 161.9,94.24 161.91,94.25L162.16,94.32C162.16,94.32 162.25,94.35 162.29,94.36C162.87,94.51 163.48,94.52 164.12,94.39C164.34,94.35 164.57,94.28 164.86,94.18C165.47,93.96 166.15,94.06 166.68,94.43C167.21,94.8 167.53,95.41 167.53,96.06V99.46C167.53,100.26 167.05,100.98 166.32,101.3L153.2,106.9C152.5,107.2 151.79,107.57 151.03,108.04C150.71,108.24 150.34,108.34 149.97,108.34H149.96ZM151.96,95.2V103.07L162.75,98.47C162.22,98.44 161.71,98.35 161.2,98.22C161.12,98.2 161.04,98.18 160.97,98.16L160.64,98.05C160.64,98.05 160.62,98.05 160.6,98.04L151.97,95.21L151.96,95.2Z" fill="#565657" />
  <path d="M159.61,97.21C159.18,97.21 158.75,97.07 158.39,96.79C158.34,96.75 158.28,96.71 158.23,96.66C158.19,96.63 158.16,96.6 158.13,96.57C157.3,95.85 157.21,94.59 157.93,93.75C158.65,92.92 159.91,92.82 160.75,93.54L160.86,93.63C161.72,94.32 161.87,95.57 161.19,96.44C160.79,96.94 160.21,97.21 159.62,97.21H159.61Z" fill="#565657" />
  <path d="M160.4,97.75C160.07,97.75 159.74,97.67 159.44,97.5C159.36,97.45 159.28,97.41 159.2,97.36C158.59,96.97 158.25,96.3 158.25,95.62C158.25,95.26 158.34,94.91 158.55,94.58C159.13,93.65 160.32,93.34 161.26,93.92C161.26,93.92 161.35,93.98 161.36,93.99C162.02,94.36 162.4,95.05 162.4,95.76C162.4,96.09 162.32,96.42 162.15,96.72C161.78,97.38 161.11,97.75 160.41,97.75H160.4Z" fill="#565657" />
  <path d="M158.78,96.44C158.27,96.44 157.75,96.24 157.36,95.83L157.76,95.44L158.76,94.41L160.2,93.02C160.58,93.41 160.77,93.92 160.77,94.43C160.77,94.94 160.57,95.48 160.16,95.87C159.77,96.25 159.27,96.44 158.77,96.44H158.78Z" fill="#565657" />
  <path d="M187.43,219.68C196.92,216.57 201.02,203.05 196.58,189.5C192.13,175.94 180.83,167.48 171.33,170.59C161.83,173.7 157.74,187.22 162.18,200.77C166.62,214.33 177.93,222.79 187.43,219.68Z" fill="#9ea0a3" />
  <path d="M183.14,206.59C187.57,205.14 189.48,198.83 187.41,192.5C185.33,186.17 180.06,182.22 175.62,183.67C171.19,185.13 169.27,191.44 171.35,197.77C173.42,204.1 178.7,208.05 183.14,206.59Z" fill="#565657" />
  <path d="M207.09,197.08C206.47,183.33 197.48,170.48 187.02,168.36C185.45,168.04 183.93,167.99 182.48,168.17L173.74,170.05C175.18,169.87 176.69,169.92 178.26,170.24C188.73,172.35 197.72,185.21 198.33,198.96C198.95,212.7 190.97,222.13 180.5,220.02C180.28,219.97 180.05,219.92 179.83,219.86V219.9C191.02,223.5 199.79,215.94 199.79,215.94C204.55,212.46 207.47,205.6 207.09,197.08Z" fill="#6a6b6c" />
  <path d="M183.37,222.31C182.3,222.31 181.21,222.2 180.11,221.98C168.82,219.7 159.09,205.98 158.43,191.39C158.05,183.02 160.66,175.81 165.58,171.59C169.21,168.48 173.85,167.31 178.65,168.28C189.94,170.56 199.67,184.29 200.33,198.87C200.71,207.24 198.1,214.45 193.18,218.67C190.38,221.07 186.98,222.31 183.37,222.31ZM175.37,171.95C172.71,171.95 170.26,172.86 168.19,174.64C164.21,178.05 162.11,184.09 162.43,191.22C163.01,204.08 171.3,216.13 180.9,218.07C184.52,218.8 187.87,217.96 190.58,215.64C194.56,212.23 196.66,206.19 196.34,199.06C195.76,186.2 187.47,174.15 177.87,172.21C177.02,172.04 176.19,171.95 175.37,171.95Z" fill="#565657" />
  <path d="M181.3,209.18C180.72,209.18 180.12,209.12 179.52,209C173.58,207.8 168.65,200.94 168.31,193.39C168.11,189.06 169.49,185.31 172.1,183.08C174.09,181.38 176.62,180.74 179.24,181.26C185.18,182.46 190.11,189.32 190.45,196.87C190.65,201.2 189.27,204.96 186.66,207.18C185.13,208.49 183.27,209.18 181.29,209.18H181.3ZM177.45,185.08C176.43,185.08 175.51,185.43 174.7,186.12C173.07,187.52 172.17,190.17 172.31,193.21C172.56,198.82 176.23,204.26 180.31,205.08C181.74,205.37 183,205.05 184.06,204.15C185.69,202.75 186.59,200.1 186.45,197.06C186.2,191.45 182.53,186.01 178.45,185.19C178.11,185.12 177.78,185.09 177.45,185.09V185.08Z" fill="#565657" />
  <path d="M171.52,172.53C170.68,172.53 169.88,172 169.6,171.17C169.42,170.63 169.48,170.04 169.76,169.54C170.04,169.04 170.53,168.69 171.08,168.58H171.11C172.16,168.36 173.19,169 173.46,170.04C173.72,171.08 173.12,172.14 172.1,172.45C171.91,172.51 171.71,172.54 171.52,172.54V172.53Z" fill="#565657" />
  <path d="M186.02,222.88C183.9,222.88 181.62,222.57 179.23,221.8C178.53,221.58 178.01,220.99 177.88,220.27C177.75,219.6 177.97,218.9 178.47,218.43C178.97,217.96 179.66,217.76 180.32,217.92L180.43,217.95C180.59,217.99 180.75,218.03 180.91,218.06C184.53,218.79 187.88,217.95 190.59,215.63C194.57,212.22 196.67,206.18 196.35,199.05C195.77,186.19 187.48,174.14 177.88,172.2C176.56,171.93 175.26,171.88 174,172.03C172.94,172.16 171.96,171.43 171.78,170.38C171.6,169.33 172.28,168.32 173.33,168.09L182.07,166.21C182.13,166.2 182.19,166.19 182.24,166.18C183.92,165.97 185.66,166.04 187.42,166.4C198.72,168.68 208.44,182.4 209.1,196.99C209.5,205.82 206.49,213.49 201.04,217.51C200.29,218.14 194.34,222.88 186.02,222.88ZM183.67,170.08C192.7,174.75 199.78,186.5 200.34,198.87C200.66,205.93 198.85,212.18 195.31,216.49C197.22,215.48 198.37,214.52 198.5,214.42C198.54,214.39 198.58,214.35 198.62,214.32C203.02,211.1 205.44,204.69 205.1,197.17C204.52,184.31 196.23,172.26 186.63,170.32C185.63,170.12 184.64,170.03 183.68,170.07L183.67,170.08Z" fill="#565657" />
  <path d="M192.36,195.88L169.19,186.26C165.66,184.79 161.58,185.72 159.02,188.58L153.94,194.27C153.48,194.79 152.61,194.51 152.54,193.82C152.47,193.13 152.42,192.44 152.39,191.75C152.08,184.94 153.88,179.2 157.05,175.39C157.06,175.37 157.07,175.36 157.09,175.35C157.28,175.12 157.49,174.88 157.7,174.66C160.88,171.27 165.27,169.7 170.21,170.7C178.8,172.44 186.4,181.41 189.19,192.18C189.45,193.17 189.97,194.05 190.67,194.74C191.15,195.22 191.72,195.61 192.35,195.89L192.36,195.88Z" fill="#ffffff" />
  <path d="M190.68,194.73C189.98,194.04 189.46,193.16 189.2,192.17C187.58,185.89 184.31,180.24 180.17,176.26C179.62,176.11 179.06,175.96 178.5,175.85C171.14,174.36 164.61,176.7 159.87,181.75C159.55,182.08 159.25,182.43 158.96,182.78C158.93,182.8 158.91,182.81 158.9,182.84C156.32,185.94 154.35,189.9 153.17,194.51C153.44,194.57 153.73,194.51 153.95,194.27L159.03,188.58C161.58,185.72 165.66,184.79 169.2,186.26L192.37,195.88C191.74,195.59 191.17,195.21 190.69,194.73H190.68Z" fill="#c4e2f3" />
  <path d="M209.73,190.46L196.77,196.03C195.65,196.45 194.41,196.51 193.26,196.19C192.95,196.11 192.65,196 192.36,195.87C191.73,195.58 191.16,195.2 190.68,194.72C189.98,194.03 189.46,193.15 189.2,192.16C186.41,181.39 178.82,172.42 170.22,170.68C165.28,169.68 160.89,171.25 157.71,174.64C169.65,161.24 183.58,159.53 191.8,161.7C201.32,164.21 209.71,174.79 211.86,186.43C212.17,188.1 211.3,189.78 209.74,190.45L209.73,190.46Z" fill="#4db4ef" />
  <path d="M192.36,197.88C192.1,197.88 191.85,197.83 191.59,197.73L168.42,188.11C165.67,186.97 162.49,187.69 160.51,189.91L155.43,195.6C154.7,196.42 153.54,196.74 152.48,196.4C151.42,196.06 150.66,195.13 150.55,194.02C150.47,193.29 150.42,192.56 150.39,191.83C150.07,184.74 151.89,178.45 155.52,174.1C155.52,174.1 155.58,174.03 155.61,174C155.82,173.75 156.04,173.5 156.27,173.26C160.06,169.23 165.16,167.61 170.63,168.72C179.83,170.58 188.08,179.79 191.15,191.66C191.31,192.28 191.64,192.84 192.1,193.3C192.42,193.61 192.78,193.86 193.21,194.06C194.21,194.51 194.66,195.68 194.22,196.68C193.89,197.43 193.16,197.89 192.38,197.89L192.36,197.88ZM165.74,183.58C167.16,183.58 168.59,183.85 169.95,184.42L186.92,191.46C184.04,181.78 177.13,174.13 169.82,172.65C165.76,171.83 161.97,173.03 159.16,176.02C158.97,176.22 158.8,176.42 158.63,176.62C158.6,176.66 158.56,176.7 158.53,176.74C155.72,180.15 154.25,185.11 154.36,190.81L157.53,187.26C159.66,184.87 162.67,183.59 165.74,183.59V183.58Z" fill="#565657" />
  <path d="M194.73,198.39C194.05,198.39 193.38,198.3 192.73,198.12C192.38,198.03 191.98,197.89 191.57,197.71C190.67,197.3 189.9,196.78 189.26,196.13C188.29,195.18 187.6,193.97 187.26,192.65C184.61,182.4 177.44,174.17 169.83,172.64C165.77,171.82 161.98,173.02 159.17,176.01C158.42,176.81 157.17,176.85 156.36,176.12C155.55,175.38 155.49,174.13 156.22,173.31C168.48,159.55 182.91,157.29 192.31,159.76C202.47,162.44 211.51,173.5 213.83,186.06C214.31,188.68 212.95,191.24 210.53,192.28L197.57,197.85C196.64,198.2 195.68,198.37 194.74,198.37L194.73,198.39ZM168.08,168.41C168.92,168.45 169.76,168.56 170.62,168.73C179.82,170.59 188.07,179.8 191.14,191.67C191.3,192.29 191.63,192.85 192.09,193.31C192.41,193.62 192.77,193.87 193.2,194.07C193.39,194.15 193.6,194.23 193.79,194.28C194.55,194.49 195.36,194.45 196.09,194.18L208.96,188.64C209.66,188.34 210.05,187.59 209.91,186.81C207.9,175.87 199.9,165.92 191.31,163.65C183.02,161.47 174.75,164.13 168.1,168.42L168.08,168.41Z" fill="#565657" />
  <path d="M125.28,136.58C124.43,136.58 123.58,136.29 122.88,135.73C121.73,134.8 121.22,133.33 121.55,131.89C122.29,128.69 122.26,125.31 121.48,122.12C120.81,119.38 122.17,116.51 124.72,115.31L129.85,112.89C131.25,112.23 132.84,112.24 134.23,112.91C135.62,113.58 136.61,114.83 136.96,116.34C137.84,120.15 137.8,124.17 136.86,127.97L136.66,128.8C136.16,130.83 134.79,132.5 132.9,133.39L126.91,136.22C126.38,136.47 125.82,136.59 125.27,136.59L125.28,136.58ZM132.03,116.39C131.89,116.39 131.74,116.42 131.57,116.49L126.44,118.91C125.6,119.31 125.15,120.25 125.37,121.15C126.28,124.83 126.33,128.72 125.53,132.43L131.2,129.75C131.99,129.37 132.57,128.67 132.78,127.82L132.98,126.99C133.77,123.8 133.8,120.42 133.06,117.21C132.96,116.77 132.66,116.57 132.48,116.48C132.38,116.43 132.21,116.37 132.01,116.37L132.03,116.39Z" fill="#565657" />
  <path d="M123.58,136.76C118.99,136.76 109.09,134.85 88.66,124.92C86.21,123.73 84.62,121.19 84.62,118.46C84.62,116.11 85.77,113.91 87.69,112.57C89.61,111.23 92.07,110.92 94.27,111.73C100.12,113.89 108.1,116.63 112.87,117.41C118.69,118.36 122.46,116.65 123.81,115.87C124.72,115.35 125.87,115.61 126.46,116.48C127.05,117.35 126.87,118.52 126.05,119.17C125.45,119.65 125.18,120.43 125.36,121.16C126.27,124.85 126.32,128.76 125.51,132.48C126.41,132.23 127.38,132.62 127.83,133.47C128.33,134.42 127.99,135.59 127.07,136.13C126.7,136.35 125.71,136.76 123.58,136.76ZM91.79,115.28C91.16,115.28 90.53,115.47 89.99,115.85C89.12,116.45 88.63,117.4 88.63,118.46C88.63,119.67 89.33,120.79 90.42,121.32C107.79,129.76 116.98,132.07 121.47,132.61C121.47,132.37 121.51,132.13 121.57,131.88C122.31,128.68 122.28,125.3 121.5,122.11C121.42,121.77 121.36,121.42 121.34,121.08C119.01,121.65 115.94,121.96 112.25,121.35C107.17,120.52 98.92,117.7 92.91,115.47C92.55,115.34 92.17,115.27 91.8,115.27L91.79,115.28Z" fill="#565657" />
  <path d="M123.78,125.37C122.82,125.37 121.97,124.68 121.81,123.7C121.77,123.45 121.73,123.22 121.69,123C121.63,122.71 121.57,122.42 121.5,122.13C121.5,122.13 121.5,122.13 121.5,122.12C121.24,121.05 121.89,119.96 122.97,119.7C124.03,119.44 125.13,120.09 125.39,121.17V121.19C125.52,121.73 125.64,122.3 125.75,122.98C125.75,123 125.75,123.02 125.75,123.03C125.77,123.14 125.78,123.25 125.78,123.36C125.78,124.32 125.09,125.17 124.11,125.33C124,125.35 123.89,125.36 123.78,125.36V125.37Z" fill="#565657" />
  <path d="M116.21,121.68C114.98,121.68 113.65,121.58 112.23,121.35C107.45,120.57 99.83,118 94.29,115.99C92.05,115.18 90.58,113.19 90.46,110.81C90.34,108.43 91.6,106.3 93.75,105.27L101.71,101.43C105.66,99.52 110.32,99.93 113.88,102.48L119.4,106.44C121.54,107.97 123.88,109.2 126.35,110.08L133.71,112.68C134.22,112.86 134.64,113.24 134.87,113.74C135.1,114.24 135.11,114.8 134.91,115.31C134.51,116.31 133.38,116.83 132.37,116.47C132.17,116.4 131.87,116.35 131.56,116.49L126.43,118.91C126.33,118.96 126.2,119.04 126.06,119.16C125.98,119.22 125.9,119.28 125.81,119.33C124.43,120.12 121.1,121.68 116.21,121.68ZM106.92,104.24C105.74,104.24 104.56,104.5 103.46,105.03L95.5,108.87C94.49,109.36 94.45,110.32 94.47,110.61C94.48,110.89 94.61,111.85 95.67,112.23C103.39,115.04 109.35,116.82 112.89,117.4C118.55,118.32 122.27,116.73 123.72,115.93C124.06,115.67 124.4,115.46 124.74,115.3L126.62,114.41L125.04,113.85C122.21,112.84 119.53,111.44 117.09,109.69L111.57,105.73C110.19,104.74 108.57,104.24 106.93,104.24H106.92Z" fill="#565657" />
  <path d="M123.52,121.44C123.31,121.44 123.11,121.41 122.9,121.34C121.85,120.99 121.28,119.89 121.62,118.84C121.65,118.76 121.68,118.67 121.71,118.59C121.71,118.57 121.72,118.55 121.73,118.54C122.15,117.55 123.29,117.05 124.3,117.44C125.29,117.83 125.81,118.89 125.49,119.89V119.91C125.49,119.91 125.49,119.94 125.48,119.95C125.48,119.95 125.48,119.95 125.48,119.96C125.48,119.98 125.46,120.01 125.46,120.01C125.18,120.85 124.39,121.4 123.54,121.4L123.52,121.44Z" fill="#565657" />
  <path d="M123.33,122.78C122.25,122.78 121.36,121.91 121.33,120.82C121.33,120.76 121.33,120.71 121.33,120.65C121.33,120.51 121.33,120.37 121.34,120.23C121.42,119.13 122.38,118.3 123.49,118.39C124.54,118.47 125.34,119.35 125.34,120.38C125.34,120.43 125.34,120.48 125.34,120.53C125.34,120.57 125.34,120.6 125.34,120.64C125.34,120.67 125.34,120.69 125.34,120.72C125.34,120.74 125.34,120.75 125.34,120.77C125.34,121.85 124.47,122.74 123.38,122.77C123.36,122.77 123.35,122.77 123.33,122.77V122.78Z" fill="#565657" />
  <path d="M123.43,123.64C122.53,123.64 121.71,123.03 121.49,122.12C121.42,121.82 121.37,121.51 121.34,121.17C121.34,121.12 121.34,121.06 121.34,121.01C121.34,119.98 122.13,119.1 123.18,119.02C124.28,118.93 125.24,119.76 125.33,120.86C125.33,120.96 125.35,121.07 125.38,121.17C125.42,121.33 125.44,121.49 125.44,121.65C125.44,122.55 124.83,123.37 123.92,123.59C123.76,123.63 123.6,123.65 123.44,123.65L123.43,123.64Z" fill="#565657" />
  <path d="M123.38,122.1C123.28,122.1 123.17,122.1 123.07,122.08C122.08,121.93 121.38,121.08 121.38,120.11C121.38,120.01 121.38,119.9 121.4,119.8C121.42,119.65 121.45,119.5 121.49,119.35C121.74,118.28 122.82,117.62 123.89,117.86C124.96,118.11 125.63,119.18 125.39,120.25C125.38,120.3 125.37,120.36 125.36,120.41C125.21,121.4 124.36,122.1 123.39,122.1H123.38Z" fill="#565657" />
  <path d="M86.62,120.04C85.54,120.04 84.66,119.18 84.62,118.1C84.62,117.77 84.47,109.88 93.06,105.58C94.05,105.08 95.25,105.48 95.74,106.47C96.24,107.46 95.84,108.66 94.85,109.15C88.52,112.32 88.62,117.92 88.62,117.97C88.65,119.07 87.79,120 86.68,120.03C86.66,120.03 86.64,120.03 86.62,120.03V120.04Z" fill="#565657" />
  <path d="M176.43,144.07L176.39,144.02C175.4,142.97 174.16,142.21 172.78,141.81L173.28,141.26C174,140.47 174.55,139.54 174.91,138.53L175.05,138.15L175.35,138.44C176.2,139.27 177.23,139.9 178.36,140.29L178.71,140.41H178.7C177.72,141.33 176.99,142.47 176.56,143.74L176.45,144.07H176.43Z" fill="#ffffff" />
  <path d="M54.49,77.45L54.47,77.42C54.04,76.67 53.41,76.05 52.66,75.62L53.03,75.37C53.56,75 54.01,74.54 54.36,74L54.49,73.79L54.62,74C55.01,74.61 55.52,75.12 56.13,75.5L56.32,75.62C55.62,76.03 55.03,76.59 54.61,77.28L54.5,77.46L54.49,77.45Z" fill="#ffffff" />
  <path d="M156.96,127.61C157.66,127.61 158.22,127.05 158.22,126.35C158.22,125.65 157.66,125.09 156.96,125.09C156.26,125.09 155.7,125.65 155.7,126.35C155.7,127.05 156.26,127.61 156.96,127.61Z" fill="#ffffff" />
  <path d="M161.95,90.25C162.65,90.25 163.21,89.69 163.21,88.99C163.21,88.29 162.65,87.73 161.95,87.73C161.25,87.73 160.69,88.29 160.69,88.99C160.69,89.69 161.25,90.25 161.95,90.25Z" fill="#ffffff" />
  <path d="M153.66,133.26C154.78,133.26 155.68,132.35 155.68,131.24C155.68,130.12 154.78,129.22 153.66,129.22C152.54,129.22 151.64,130.12 151.64,131.24C151.64,132.35 152.54,133.26 153.66,133.26Z" fill="#ffffff" />
  <path d="M70.15,147.9C71.27,147.9 72.17,146.99 72.17,145.88C72.17,144.76 71.27,143.86 70.15,143.86C69.03,143.86 68.13,144.76 68.13,145.88C68.13,146.99 69.03,147.9 70.15,147.9Z" fill="#ffffff" />
  <path d="M77.09,132.45C77.76,132.45 78.3,131.91 78.3,131.24C78.3,130.57 77.76,130.03 77.09,130.03C76.42,130.03 75.88,130.57 75.88,131.24C75.88,131.91 76.42,132.45 77.09,132.45Z" fill="#ffffff" />
  <path d="M104.27,66.67C103.33,69.7 102.37,75.18 104.89,81.18L105.95,83.69C106.34,84.61 105.43,85.53 104.5,85.17L101.39,83.95C100.85,83.74 100.24,83.97 99.98,84.49L98.16,88.12C97.73,88.98 96.49,88.94 96.12,88.05L94.98,85.34C91.14,76.21 92.57,67.96 94.1,63.2L104.28,66.66L104.27,66.67Z" fill="#ef4d4d" />
  <path d="M72.77,56.26C71.72,59.25 69.23,64.23 63.62,67.54L61.28,68.93C60.42,69.44 60.6,70.72 61.56,70.98L64.79,71.86C65.35,72.01 65.7,72.57 65.6,73.14L64.9,77.14C64.73,78.09 65.75,78.79 66.58,78.3L69.11,76.8C77.63,71.76 81.4,64.27 83.01,59.55L72.77,56.26Z" fill="#ef4d4d" />
  <path d="M97.15,90.76C97.15,90.76 97.08,90.76 97.04,90.76C95.81,90.72 94.74,89.99 94.26,88.85L93.12,86.14C89.14,76.68 90.41,68.12 92.18,62.61C92.34,62.1 92.71,61.68 93.18,61.43C93.66,61.19 94.22,61.15 94.72,61.32L104.9,64.78C105.93,65.13 106.49,66.23 106.17,67.27C105.38,69.81 104.4,74.89 106.72,80.41L107.78,82.92C108.27,84.08 108.02,85.41 107.14,86.31C106.26,87.21 104.94,87.5 103.77,87.04L101.4,86.11L99.94,89.03C99.4,90.1 98.34,90.75 97.15,90.75V90.76ZM95.43,65.79C94.22,70.61 93.75,77.3 96.81,84.59L97.21,85.55L98.18,83.62C98.91,82.17 100.6,81.52 102.11,82.11L103.3,82.57L103.05,81.97C100.73,76.45 101.12,71.32 101.86,67.98L95.43,65.8V65.79Z" fill="#565657" />
  <path d="M66,80.47C65.38,80.47 64.77,80.28 64.23,79.91C63.21,79.21 62.72,78.02 62.93,76.8L63.49,73.58L61.03,72.91C59.82,72.58 58.92,71.56 58.75,70.31C58.58,69.06 59.17,67.84 60.25,67.2L62.59,65.81C67.75,62.76 69.99,58.09 70.87,55.59C71.23,54.57 72.34,54.01 73.37,54.35L83.61,57.64C84.12,57.8 84.54,58.17 84.78,58.65C85.02,59.13 85.06,59.69 84.89,60.19C83.02,65.67 78.95,73.29 70.11,78.52L67.58,80.02C67.08,80.31 66.53,80.46 65.99,80.46L66,80.47ZM64.08,69.6L65.31,69.93C66.88,70.36 67.85,71.89 67.57,73.49L67.2,75.62L68.09,75.09C74.9,71.06 78.5,65.41 80.4,60.82L73.94,58.74C72.54,61.87 69.8,66.22 64.65,69.27L64.09,69.6H64.08Z" fill="#565657" />
  <path d="M82.37,61.49C82.37,61.49 70.61,63.58 67.64,62.59C64.67,61.61 63.05,58.4 64.04,55.43L68.75,41.18C69.73,38.21 72.94,36.59 75.91,37.58C78.88,38.56 87.08,47.24 87.08,47.24L82.37,61.49Z" fill="#f7d4d4" />
  <path d="M67.64,62.6C70.61,63.58 82.37,61.5 82.37,61.5L87.08,47.25C87.08,47.25 84.07,44.06 81.03,41.33C78.67,41.52 76.39,42.63 74.76,44.59L63.79,57.85C64.03,59.98 65.47,61.89 67.64,62.6Z" fill="#ef4d4d" />
  <path d="M82.37,61.49C82.37,61.49 70.61,63.58 67.64,62.59C64.67,61.61 63.05,58.4 64.04,55.43C65.03,52.46 68.23,50.84 71.2,51.83C74.17,52.81 82.37,61.49 82.37,61.49Z" fill="#f5b3b3" />
  <path d="M93.44,65.15C93.44,65.15 101.64,73.83 104.61,74.81C107.58,75.79 110.79,74.18 111.77,71.21L116.48,56.96C117.46,53.99 115.85,50.78 112.88,49.8C109.91,48.82 98.15,50.9 98.15,50.9L93.44,65.15Z" fill="#f7d4d4" />
  <path d="M111.1,49.55L96.01,67.78C98.67,70.42 102.71,74.19 104.61,74.82C107.58,75.8 110.79,74.19 111.77,71.22L116.48,56.97C117.46,54 115.85,50.79 112.88,49.81C112.45,49.67 111.84,49.59 111.1,49.56V49.55Z" fill="#ef4d4d" />
  <path d="M93.44,65.15C93.44,65.15 101.64,73.83 104.61,74.81C107.58,75.79 110.79,74.18 111.77,71.21C112.75,68.24 111.14,65.03 108.17,64.05C105.2,63.07 93.44,65.15 93.44,65.15Z" fill="#f5b3b3" />
  <path d="M96.35,44.16L92.54,42.9C90.53,42.24 88.37,43.32 87.71,45.33L82.05,62.45C81.39,64.46 82.47,66.62 84.48,67.28L88.29,68.54C90.3,69.2 92.46,68.12 93.12,66.11L98.78,48.99C99.44,46.98 98.36,44.82 96.35,44.16Z" fill="#f7d4d4" />
  <path d="M90.29,50.84L82.68,60.56L82.62,60.75C81.65,63.69 83.24,66.87 86.19,67.84L86.61,67.98C89.55,68.95 92.73,67.36 93.7,64.41L98.24,50.69C98.5,49.92 98.57,49.13 98.49,48.37C95.59,47.41 92.29,48.3 90.3,50.84H90.29Z" fill="#ef4d4d" />
  <path d="M88.23,70.21C87.4,70.21 86.57,70.08 85.76,69.81C81.66,68.45 79.43,64.02 80.78,59.92L85.18,46.61C85.84,44.62 87.23,43.01 89.1,42.07C90.97,41.13 93.09,40.97 95.08,41.63C99.18,42.98 101.41,47.42 100.06,51.52L95.66,64.83C95,66.82 93.61,68.43 91.74,69.37C90.63,69.93 89.43,70.21 88.23,70.21ZM87.02,66.01C89.03,66.67 91.2,65.58 91.86,63.57L96.26,50.26C96.92,48.25 95.83,46.08 93.82,45.42C92.85,45.1 91.81,45.17 90.9,45.63C89.99,46.09 89.31,46.88 88.98,47.85L84.58,61.16C83.92,63.17 85.01,65.34 87.01,66L87.02,66.01Z" fill="#565657" />
  <path d="M70.23,64.84C68.91,64.84 67.77,64.74 67.01,64.49C62.99,63.16 60.81,58.82 62.13,54.8L66.84,40.55C67.48,38.6 68.84,37.03 70.67,36.1C72.5,35.18 74.58,35.03 76.53,35.67C79.82,36.76 87.1,44.35 88.53,45.86C89.03,46.39 89.21,47.16 88.98,47.86L84.27,62.11C84.04,62.81 83.44,63.32 82.72,63.45C81.15,63.73 74.64,64.83 70.23,64.83V64.84ZM74.13,39.29C73.56,39.29 73,39.42 72.48,39.68C71.6,40.12 70.95,40.88 70.65,41.81L65.94,56.06C65.3,57.98 66.35,60.06 68.27,60.7C69.7,61.17 75.67,60.58 80.85,59.73L84.8,47.76C81.15,43.98 76.71,39.95 75.28,39.48C74.9,39.36 74.51,39.29 74.12,39.29H74.13Z" fill="#565657" />
  <path d="M70.23,64.84C68.91,64.84 67.77,64.74 67.01,64.49C62.99,63.16 60.81,58.82 62.13,54.8C62.77,52.85 64.13,51.28 65.97,50.36C67.8,49.44 69.88,49.29 71.83,49.93C75.12,51.02 82.4,58.61 83.83,60.12C84.33,60.65 84.51,61.42 84.28,62.12C84.05,62.82 83.45,63.33 82.73,63.46C81.16,63.74 74.65,64.84 70.24,64.84H70.23ZM69.42,53.54C68.85,53.54 68.29,53.67 67.77,53.93C66.89,54.37 66.24,55.13 65.94,56.06C65.3,57.98 66.35,60.06 68.27,60.7C69.46,61.1 73.81,60.75 78.23,60.13C75.05,57 71.76,54.13 70.57,53.73C70.19,53.61 69.8,53.54 69.41,53.54H69.42Z" fill="#565657" />
  <path d="M106.39,77.1C105.6,77.1 104.79,76.98 103.99,76.71C100.7,75.62 93.42,68.03 91.99,66.52C91.49,65.99 91.31,65.22 91.54,64.52L96.25,50.27C96.48,49.57 97.08,49.06 97.8,48.93C99.85,48.57 110.22,46.81 113.51,47.9C117.53,49.23 119.71,53.57 118.39,57.59L113.68,71.84C112.61,75.06 109.61,77.1 106.39,77.1ZM95.72,64.64C99.37,68.42 103.81,72.45 105.24,72.92C107.16,73.55 109.24,72.51 109.88,70.59L114.59,56.34C115.23,54.42 114.18,52.34 112.26,51.7C110.83,51.23 104.86,51.82 99.68,52.67L95.72,64.64Z" fill="#565657" />
  <path d="M106.39,77.1C105.6,77.1 104.79,76.98 103.99,76.71C100.7,75.62 93.42,68.03 91.99,66.52C91.49,65.99 91.31,65.22 91.54,64.52C91.77,63.82 92.37,63.31 93.09,63.18C95.14,62.82 105.51,61.06 108.8,62.15C112.82,63.48 115,67.82 113.68,71.84C112.61,75.06 109.61,77.1 106.39,77.1ZM97.58,66.52C100.76,69.65 104.05,72.52 105.24,72.92C107.16,73.55 109.24,72.51 109.88,70.59C110.51,68.67 109.47,66.59 107.55,65.95C106.36,65.56 102.01,65.9 97.59,66.52H97.58Z" fill="#565657" />
</svg>