<svg width="191.0" height="63.0" viewBox="0 0 191.0 63.0" xmlns="http://www.w3.org/2000/svg">
  <path d="M0.37,40.52V40.38C0.37,28.64 9.38,18.68 22.1,18.68C28.44,18.68 32.63,20.2 36.47,22.95C37.18,23.49 37.99,24.51 37.99,25.93C37.99,27.93 36.38,29.58 34.33,29.58C33.35,29.58 32.63,29.18 32.05,28.73C29.33,26.78 26.39,25.44 21.83,25.44C14.07,25.44 8.18,32.25 8.18,40.25V40.38C8.18,49.01 13.89,55.37 22.5,55.37C26.47,55.37 30.09,54.12 32.68,52.21V44.34H24.33C22.55,44.34 21.03,42.96 21.03,41.14C21.03,39.36 22.55,37.89 24.33,37.89H36.07C38.17,37.89 39.82,39.49 39.82,41.63V52.83C39.82,54.92 38.97,56.43 37.23,57.5C33.61,59.9 28.57,62.08 22.24,62.08C9.07,62.08 0.37,52.74 0.37,40.52Z" fill="#00a082" fill-rule="evenodd" clip-rule="evenodd" />
  <path d="M46.46,20.86C46.46,18.86 48.03,17.26 50.08,17.26C52.13,17.26 53.74,18.86 53.74,20.86V58.08C53.74,60.13 52.13,61.68 50.08,61.68C48.07,61.68 46.46,60.13 46.46,58.08V20.86Z" fill="#00a082" fill-rule="evenodd" clip-rule="evenodd" />
  <path d="M59.41,45.72V45.58C59.41,36.51 66.64,29.04 76.37,29.04C86.14,29.04 93.28,36.42 93.28,45.49V45.63C93.28,54.61 86.05,62.12 76.23,62.12C66.55,62.08 59.41,54.7 59.41,45.72ZM86,45.72V45.58C86,40.02 81.99,35.4 76.23,35.4C70.39,35.4 66.64,39.98 66.64,45.49V45.63C66.64,51.14 70.65,55.76 76.32,55.76C82.26,55.72 86,51.19 86,45.72Z" fill="#00a082" fill-rule="evenodd" clip-rule="evenodd" />
  <path d="M111.49,61.99H111.13C109.12,61.99 107.83,60.74 106.98,58.79L96.4,34.6C96.22,34.07 96,33.44 96,32.82C96,31.04 97.61,29.35 99.61,29.35C101.62,29.35 102.6,30.51 103.23,31.98L111.39,52.96L119.7,31.84C120.23,30.6 121.21,29.31 123.13,29.31C125.14,29.31 126.7,30.82 126.7,32.78C126.7,33.44 126.48,34.16 126.3,34.51L115.64,58.79C114.79,60.66 113.45,61.99 111.49,61.99Z" fill="#00a082" fill-rule="evenodd" clip-rule="evenodd" />
  <path d="M129.29,45.72V45.58C129.29,36.51 136.52,29.04 146.29,29.04C156.06,29.04 163.2,36.42 163.2,45.49V45.63C163.2,54.61 155.98,62.12 146.16,62.12C136.47,62.08 129.29,54.7 129.29,45.72ZM155.93,45.72V45.58C155.93,40.02 151.91,35.4 146.16,35.4C140.31,35.4 136.56,39.98 136.56,45.49V45.63C136.56,51.14 140.58,55.76 146.24,55.76C152.18,55.72 155.93,51.19 155.93,45.72Z" fill="#00a082" fill-rule="evenodd" clip-rule="evenodd" />
  <path d="M175.39,0.28C167.49,0.28 161.06,6.68 161.06,14.55C161.06,17.53 162,20.42 163.74,22.86L164.14,23.4L171.6,33.89C171.6,33.89 172.49,35.36 174.5,35.36H175.08H175.84H176.28C178.24,35.36 179.18,33.89 179.18,33.89L186.63,23.4L186.99,22.86C188.78,20.42 189.67,17.53 189.67,14.55C189.71,6.68 183.29,0.28 175.39,0.28ZM181.28,18.73L180.88,19.26L175.39,27L169.9,19.31L169.5,18.73C168.6,17.48 168.11,16.02 168.11,14.5C168.11,10.5 171.37,7.26 175.39,7.26C179.4,7.26 182.66,10.5 182.66,14.5C182.66,16.06 182.17,17.48 181.28,18.73Z" fill="#00a082" fill-rule="evenodd" clip-rule="evenodd" />
  <path d="M171.37,41.76C171.37,39.58 173.07,37.85 175.34,37.85C177.62,37.85 179.31,39.58 179.31,41.72V41.76C179.31,43.89 177.62,45.63 175.3,45.63C173.07,45.58 171.37,43.85 171.37,41.76Z" fill="#00a082" fill-rule="evenodd" clip-rule="evenodd" />
</svg>