<svg width="393.0" height="48.0" viewBox="0 0 393.0 48.0" xmlns="http://www.w3.org/2000/svg">
  <path d="M0.04,9.6L0,9.61L0,48.38H393V27.61C393,27.61 349.78,24.19 287.15,18.38C241.82,14.17 152.85,0.37 104.8,0.38C56.76,0.38 42.58,2.68 0.04,9.6Z" fill="#FFCF6E" />
  <path d="M106.44,12.38C58.38,12.38 42.58,15.69 0,22.8L0,48.38H393V36.53C393,36.53 348.65,31.13 286.02,25.16C240.68,20.84 154.49,12.37 106.44,12.38Z" fill="#FFD98C" />
  <path d="M393,48.38C341.15,33.37 252.18,24.38 175.76,24.38C115.72,24.37 60.04,26.87 0,36.37L0,48.38H393Z" fill="#FFFFFF" />
</svg>