<svg width="24.0" height="24.0" viewBox="0 0 24.0 24.0" xmlns="http://www.w3.org/2000/svg">
  <path d="M19.125,4.5H4.875C3.632,4.5 2.625,5.507 2.625,6.75V17.25C2.625,18.493 3.632,19.5 4.875,19.5H19.125C20.368,19.5 21.375,18.493 21.375,17.25V6.75C21.375,5.507 20.368,4.5 19.125,4.5ZM18.751,6H5.264L12.066,12.081L18.751,6ZM4.125,6.994V17.25C4.125,17.664 4.461,18 4.875,18H19.125C19.539,18 19.875,17.664 19.875,17.25V7.005L12.575,13.646C12.291,13.904 11.857,13.906 11.571,13.65L4.125,6.994Z" fill="#00a082" fill-rule="evenodd" clip-rule="evenodd" />
</svg>