<svg width="96.0" height="96.0" viewBox="0 0 96.0 96.0" xmlns="http://www.w3.org/2000/svg">
  <path d="M42.5,8C36.701,8 32,12.701 32,18.5V22H29.986C24.496,22 19.933,26.228 19.516,31.701L16.084,76.701C15.619,82.797 20.44,88 26.553,88H69.445C75.559,88 80.379,82.797 79.914,76.701L76.482,31.701C76.065,26.228 71.502,22 66.013,22H64V18.5C64,12.701 59.299,8 53.5,8H42.5ZM57,22V18.5C57,16.567 55.433,15 53.5,15H42.5C40.567,15 39,16.567 39,18.5V22H57ZM26.496,32.234C26.635,30.409 28.156,29 29.986,29H66.013C67.842,29 69.363,30.409 69.503,32.234L72.935,77.234C73.09,79.266 71.483,81 69.445,81H26.553C24.515,81 22.909,79.266 23.063,77.234L26.496,32.234Z" fill="#161617" fill-rule="evenodd" clip-rule="evenodd" />
</svg>