<svg width="96.0" height="96.0" viewBox="0 0 96.0 96.0" xmlns="http://www.w3.org/2000/svg">
  <path d="M52.239,13.65C49.845,11.44 46.155,11.44 43.761,13.65L13.126,41.928C11.706,43.239 11.617,45.453 12.928,46.874C14.239,48.294 16.454,48.383 17.874,47.071L20,45.109V77C20,80.866 23.134,84 27,84H69C72.866,84 76,80.866 76,77V45.109L78.126,47.071C79.546,48.383 81.761,48.294 83.072,46.874C84.383,45.453 84.294,43.239 82.874,41.928L52.239,13.65ZM27,77V38.647L48,19.263L69,38.647V77H60V55.5C60,53.567 58.433,52 56.5,52H39.5C37.567,52 36,53.567 36,55.5V77H27ZM43,77H53V59H43V77Z" fill="#161617" fill-rule="evenodd" clip-rule="evenodd" />
</svg>