<svg width="96.0" height="96.0" viewBox="0 0 96.0 96.0" xmlns="http://www.w3.org/2000/svg">
  <path d="M43,11.998C25.879,11.998 12,25.877 12,42.998C12,60.119 25.879,73.998 43,73.998C50.299,73.998 57.009,71.475 62.306,67.254L78.025,82.973C79.392,84.34 81.608,84.34 82.975,82.973C84.342,81.607 84.342,79.391 82.975,78.024L67.256,62.305C71.477,57.008 74,50.298 74,42.998C74,25.877 60.121,11.998 43,11.998ZM19,42.998C19,29.743 29.745,18.998 43,18.998C56.255,18.998 67,29.743 67,42.998C67,56.253 56.255,66.998 43,66.998C29.745,66.998 19,56.253 19,42.998Z" fill="#161617" fill-rule="evenodd" clip-rule="evenodd" />
</svg>