<svg width="96.0" height="96.0" viewBox="0 0 96.0 96.0" xmlns="http://www.w3.org/2000/svg">
  <path d="M30.5,8C24.701,8 20,12.701 20,18.5V77.5C20,83.299 24.701,88 30.5,88H65.5C71.299,88 76,83.299 76,77.5V18.5C76,12.701 71.299,8 65.5,8H30.5ZM27,18.5C27,16.567 28.567,15 30.5,15H34C34,16.933 35.567,18.5 37.5,18.5H58.5C60.433,18.5 62,16.933 62,15H65.5C67.433,15 69,16.567 69,18.5V77.5C69,79.433 67.433,81 65.5,81H30.5C28.567,81 27,79.433 27,77.5V18.5Z" fill="#161617" fill-rule="evenodd" clip-rule="evenodd" />
</svg>