<svg width="96.0" height="96.0" viewBox="0 0 96.0 96.0" xmlns="http://www.w3.org/2000/svg">
  <path d="M48,10C38.059,10 30,18.059 30,28C30,37.941 38.059,46 48,46C57.941,46 66,37.941 66,28C66,18.059 57.941,10 48,10ZM37,28C37,21.925 41.925,17 48,17C54.075,17 59,21.925 59,28C59,34.075 54.075,39 48,39C41.925,39 37,34.075 37,28Z" fill="#161617" fill-rule="evenodd" clip-rule="evenodd" />
  <path d="M48,50C31.775,50 17.946,60.264 13.004,74.605C11.667,78.485 14.752,82 18.372,82H77.628C81.249,82 84.334,78.485 82.997,74.605C78.055,60.264 64.225,50 48,50ZM48,57C60.497,57 71.162,64.461 75.653,75H20.347C24.838,64.461 35.503,57 48,57Z" fill="#161617" fill-rule="evenodd" clip-rule="evenodd" />
</svg>