<svg width="261.0" height="151.0" viewBox="0 0 261.0 151.0" xmlns="http://www.w3.org/2000/svg">
  <path d="M90.34,132.07a43.28,7.65 0,1 0,86.56 0a43.28,7.65 0,1 0,-86.56 0z" fill="#7e7e7f" />
  <path d="M137.51,134.05L100.17,121.88C96.58,120.66 94.73,116.89 95.94,113.48L121.33,35.38C122.55,31.8 126.32,29.94 129.73,31.15L167.07,43.33C170.66,44.54 172.51,48.31 171.3,51.72L145.91,129.66C144.69,133.24 140.92,135.1 137.51,134.05Z" fill="#727272" stroke="#4a4a4a" stroke-width="2.56277" stroke-linecap="round" stroke-linejoin="round" />
  <path d="M91.73,102.7L88.95,111.05C87.73,114.46 89.76,118.4 93.17,119.45L130.52,131.79C133.93,133.01 137.87,130.98 138.92,127.57L141.87,119.21L91.73,102.7Z" fill="#969696" stroke="#4a4a4a" stroke-width="2.56277" stroke-linecap="round" stroke-linejoin="round" />
  <path d="M94.39,116.21C92.68,115.69 91.67,113.8 92.36,112.1L94.1,106.98" fill="#000000" stroke="#ffffff" stroke-width="2.56277" stroke-linecap="round" stroke-linejoin="round" />
  <path d="M133.44,38.69L146.4,42.87C149.48,43.91 152.9,42.22 153.95,38.98L129.73,30.98C128.51,34.22 130.38,37.65 133.44,38.69Z" fill="#d8d8d8" stroke="#4a4a4a" stroke-width="2.56277" stroke-linecap="round" stroke-linejoin="round" />
  <path d="M91.73,102.69L101.62,106L155.08,78.97L159.08,66.86L92.6,100.48L91.73,102.69Z" fill="#bdf6ff" />
  <path d="M141.87,119.21L155.08,78.97L101.62,106L141.87,119.21Z" fill="#94dced" />
  <path d="M153.77,38.98C152.73,42.05 149.3,43.74 146.23,42.87L133.27,38.69C130.2,37.65 128.51,34.22 129.38,31.15L122.73,29.06C119.32,27.85 115.38,29.88 114.34,33.29L103.38,66.88L156.5,40.02L153.77,38.98Z" fill="#94dced" />
  <path d="M94.86,93.32L92.6,100.48L159.08,66.86L161.34,59.7L94.86,93.32Z" fill="#94dced" />
  <path d="M164.65,49.63C165.86,46.22 163.84,42.28 160.43,41.24L156.67,40.02L103.56,66.88L94.86,93.49L161.34,59.87L164.65,49.63Z" fill="#bdf6ff" />
  <path d="M160.42,41.24L153.77,38.98C152.73,42.05 149.3,43.74 146.23,42.87L133.27,38.69C130.2,37.65 128.51,34.22 129.39,31.15L122.73,29.06C119.32,27.85 115.38,29.88 114.34,33.29L91.73,102.7L141.87,119.21L164.65,49.63C165.86,46.05 163.84,42.28 160.42,41.24Z" fill="#000000" stroke="#4a4a4a" stroke-width="2.56277" stroke-linecap="round" stroke-linejoin="round" />
  <path d="M96.02,100.5L117.75,34.16C118.27,32.8 119.47,31.95 120.84,31.96C121.18,31.96 121.52,31.96 121.86,32.13L125.79,33.35C125.94,37.11 128.48,40.54 132.23,41.76L145.19,45.94C146.04,46.28 147.07,46.46 148.09,46.46C151,46.48 153.57,45.13 155.46,43.09L159.38,44.31C160.23,44.65 160.91,45.17 161.25,45.86C161.59,46.71 161.76,47.57 161.41,48.42" fill="#000000" stroke="#ffffff" stroke-width="2.56277" stroke-linecap="round" stroke-linejoin="round" />
  <path d="M133.44,38.69L146.4,42.87C149.48,43.91 152.9,42.22 153.95,38.98L129.73,30.98C128.51,34.22 130.38,37.65 133.44,38.69Z" fill="#969696" stroke="#4a4a4a" stroke-width="2.56277" stroke-linecap="round" stroke-linejoin="round" />
  <path d="M119.13,122.33L107.7,118.68C106.51,118.33 105.83,116.96 106.18,115.59L106.18,115.42C106.53,114.23 107.9,113.55 109.27,113.9L120.69,117.56C121.89,117.9 122.56,119.27 122.21,120.64L122.21,120.81C121.69,122 120.32,122.85 119.13,122.33Z" fill="#727272" />
  <path d="M71.04,43.11C70.98,54.75 80.37,64.25 92.01,64.31C96.25,64.34 100.2,63.09 103.53,60.96L111.65,64.11C111.74,64.16 111.87,64.16 111.96,64.16C112.57,64.16 113.1,63.64 113.1,63.03C113.1,62.9 113.06,62.77 113.02,62.63L113.02,62.59L113.02,62.55L109.78,54.74C111.94,51.47 113.19,47.54 113.21,43.3C113.28,31.66 103.88,22.16 92.24,22.1C80.61,22.03 71.1,31.43 71.04,43.11Z" fill="#fff3da" fill-rule="evenodd" clip-rule="evenodd" />
  <path d="M71.04,43.11C70.98,54.75 80.37,64.25 92.01,64.31C96.25,64.34 100.2,63.09 103.53,60.96L111.65,64.11C111.74,64.16 111.87,64.16 111.96,64.16C112.57,64.16 113.1,63.64 113.1,63.03C113.1,62.9 113.06,62.77 113.02,62.63L113.02,62.59L113.02,62.55L109.78,54.74C111.94,51.47 113.19,47.54 113.21,43.3C113.28,31.66 103.88,22.16 92.24,22.1C80.61,22.03 71.1,31.43 71.04,43.11Z" fill="#fff3da" stroke="#4a4a4a" stroke-width="2.4" stroke-linecap="round" stroke-linejoin="round" fill-rule="evenodd" clip-rule="evenodd" />
  <path d="M92.17,47C92.81,47 93.26,46.5 93.37,45.89L93.48,44.6C96.58,44.07 99.12,42.48 99.12,38.96V38.91C99.12,35.42 96.47,33.24 92.56,33.24C89.99,33.24 88.12,34.16 86.64,35.56C86.25,35.89 86.08,36.34 86.08,36.76C86.08,37.6 86.78,38.29 87.65,38.29C88.04,38.29 88.4,38.13 88.68,37.9C89.79,36.9 91,36.37 92.47,36.37C94.48,36.37 95.69,37.46 95.69,39.02V39.07C95.69,40.83 94.23,41.84 91.61,42.09C90.86,42.17 90.41,42.73 90.52,43.49L90.8,45.89C90.88,46.53 91.36,47 92,47H92.17ZM90.02,50.97V51.25C90.02,52.33 90.86,53.17 92,53.17C93.14,53.17 93.98,52.33 93.98,51.25V50.97C93.98,49.88 93.14,49.04 92,49.04C90.86,49.04 90.02,49.88 90.02,50.97Z" fill="#4a4a4a" />
</svg>